HIERARCHY
ROOT Hips
{
	OFFSET 0.00000 0.00000 0.00000
	CHANNELS 6 Xposition Yposition Zposition Zrotation Yrotation Xrotation 
	JOINT LHipJoint
	{
		OFFSET 0 0 0
		CHANNELS 3 Zrotation Yrotation Xrotation
		JOINT LeftUpLeg
		{
			OFFSET 1.40001 -1.72600 0.84541
			CHANNELS 3 Zrotation Yrotation Xrotation
			JOINT LeftLeg
			{
				OFFSET 2.34760 -6.44999 0.00000
				CHANNELS 3 Zrotation Yrotation Xrotation
				JOINT LeftFoot
				{
					OFFSET 2.50650 -6.88655 0.00000
					CHANNELS 3 Zrotation Yrotation Xrotation
					JOINT LeftToeBase
					{
						OFFSET 0.12464 -0.34243 1.95563
						CHANNELS 3 Zrotation Yrotation Xrotation
						End Site
						{
							OFFSET 0.00000 -0.00000 1.00479
						}
					}
				}
			}
		}
	}
	JOINT RHipJoint
	{
		OFFSET 0 0 0
		CHANNELS 3 Zrotation Yrotation Xrotation
		JOINT RightUpLeg
		{
			OFFSET -1.40958 -1.72600 0.84541
			CHANNELS 3 Zrotation Yrotation Xrotation
			JOINT RightLeg
			{
				OFFSET -2.37905 -6.53640 0.00000
				CHANNELS 3 Zrotation Yrotation Xrotation
				JOINT RightFoot
				{
					OFFSET -2.50470 -6.88163 0.00000
					CHANNELS 3 Zrotation Yrotation Xrotation
					JOINT RightToeBase
					{
						OFFSET -0.12236 -0.33619 1.81785
						CHANNELS 3 Zrotation Yrotation Xrotation
						End Site
						{
							OFFSET -0.00000 -0.00000 0.93746
						}
					}
				}
			}
		}
	}
	JOINT LowerBack
	{
		OFFSET 0 0 0
		CHANNELS 3 Zrotation Yrotation Xrotation
		JOINT Spine
		{
			OFFSET -0.02146 1.96915 0.26424
			CHANNELS 3 Zrotation Yrotation Xrotation
			JOINT Spine1
			{
				OFFSET 0.01522 1.99484 0.02086
				CHANNELS 3 Zrotation Yrotation Xrotation
				JOINT Neck
				{
					OFFSET 0 0 0
					CHANNELS 3 Zrotation Yrotation Xrotation
					JOINT Neck1
					{
						OFFSET -0.02954 1.71757 0.03505
						CHANNELS 3 Zrotation Yrotation Xrotation
						JOINT Head
						{
							OFFSET 0.04170 1.65781 -0.11024
							CHANNELS 3 Zrotation Yrotation Xrotation
							End Site
							{
								OFFSET 0.01600 1.81465 -0.05144
							}
						}
					}
				}
				JOINT LeftShoulder
				{
					OFFSET 0 0 0
					CHANNELS 3 Zrotation Yrotation Xrotation
					JOINT LeftArm
					{
						OFFSET 2.77679 1.60868 -0.78649
						CHANNELS 3 Zrotation Yrotation Xrotation
						JOINT LeftForeArm
						{
							OFFSET 4.62672 -0.00000 -0.00000
							CHANNELS 3 Zrotation Yrotation Xrotation
							JOINT LeftHand
							{
								OFFSET 3.11018 -0.00000 -0.00000
								CHANNELS 3 Zrotation Yrotation Xrotation
								JOINT LeftFingerBase
								{
									OFFSET 0 0 0
									CHANNELS 3 Zrotation Yrotation Xrotation
									JOINT LeftHandIndex1
									{
										OFFSET 0.74383 -0.00000 -0.00000
										CHANNELS 3 Zrotation Yrotation Xrotation
										End Site
										{
											OFFSET 0.59970 -0.00000 -0.00000
										}
									}
								}
								JOINT LThumb
								{
									OFFSET 0 0 0
									CHANNELS 3 Zrotation Yrotation Xrotation
									End Site
									{
										OFFSET 0.60885 -0.00000 0.60885
									}
								}
							}
						}
					}
				}
				JOINT RightShoulder
				{
					OFFSET 0 0 0
					CHANNELS 3 Zrotation Yrotation Xrotation
					JOINT RightArm
					{
						OFFSET -2.73247 1.63658 -0.74740
						CHANNELS 3 Zrotation Yrotation Xrotation
						JOINT RightForeArm
						{
							OFFSET -4.55919 -0.00000 -0.00000
							CHANNELS 3 Zrotation Yrotation Xrotation
							JOINT RightHand
							{
								OFFSET -3.22748 -0.00000 -0.00000
								CHANNELS 3 Zrotation Yrotation Xrotation
								JOINT RightFingerBase
								{
									OFFSET 0 0 0
									CHANNELS 3 Zrotation Yrotation Xrotation
									JOINT RightHandIndex1
									{
										OFFSET -0.70088 -0.00000 -0.00000
										CHANNELS 3 Zrotation Yrotation Xrotation
										End Site
										{
											OFFSET -0.56507 -0.00000 -0.00000
										}
									}
								}
								JOINT RThumb
								{
									OFFSET 0 0 0
									CHANNELS 3 Zrotation Yrotation Xrotation
									End Site
									{
										OFFSET -0.57370 -0.00000 0.57370
									}
								}
							}
						}
					}
				}
			}
		}
	}
}
MOTION
Frames: 10
Frame Time: .0083333
0.7011 16.3683 -2.9422 2.1998 0.8361 16.5051 0.0000 0.0000 0.0000 -23.2374 -3.5874 -18.7011 2.7225 10.2316 29.7302 1.4835 -13.4346 -22.3872 0.1470 -2.4704 -6.8076 0.0000 0.0000 0.0000 14.5364 9.8838 -49.0848 -6.5552 -14.9456 47.1713 -0.5918 -0.9900 -14.9243 -0.4007 4.0640 -11.2569 -3.4374 -1.8036 -13.3567 0.0118 -1.9428 -4.4942 1.6471 -0.9565 2.8668 -1.3531 -1.7375 -6.4300 1.7771 -2.4326 12.6465 0.6226 -1.1479 4.8899 0.0000 0.0000 0.0000 -84.1595 -4.9879 26.4640 19.2064 -29.6743 -5.1326 -0.0000 0.0000 -0.8880 20.2266 -15.8193 -5.7357 -7.1250 0.0000 -0.0000 -4.9996 13.2249 3.7378 0.0000 0.0000 0.0000 93.2952 -16.7347 -47.7708 -5.2455 8.9981 -0.4130 0.0000 0.0000 52.7431 -18.5150 -34.4123 10.7170 7.1250 -0.0000 -0.0000 18.5300 -64.9164 -9.0719
0.6809 16.3587 -2.7298 2.7316 0.9762 16.5014 0.0000 0.0000 0.0000 -23.7420 -2.9014 -17.6054 2.5683 9.9611 28.8510 1.4192 -14.2554 -22.1278 0.1308 -2.3316 -6.4230 0.0000 0.0000 0.0000 13.8066 10.1953 -49.1089 -5.6862 -14.1172 43.7089 -0.6141 -1.3635 -15.3579 -0.3787 3.9520 -10.9417 -4.1255 -1.9224 -13.3584 -0.0718 -2.0065 -4.4672 1.9363 -0.9876 2.9169 -1.3334 -1.7339 -6.2106 1.8788 -2.4420 12.4593 0.6528 -1.1473 4.7963 0.0000 0.0000 0.0000 -83.6525 -5.9155 27.6782 19.9056 -30.5284 -5.4833 -0.0000 0.0000 -1.7195 21.5940 -16.1786 -6.2934 -7.1250 0.0000 -0.0000 -4.1031 12.6840 3.1102 0.0000 0.0000 0.0000 93.4885 -17.4221 -51.8827 -5.2070 8.9332 -0.4070 0.0000 0.0000 56.1626 -19.7328 -34.3180 11.4326 7.1250 -0.0000 -0.0000 17.0254 -65.1667 -8.4129
0.6712 16.3475 -2.5129 2.8870 1.2801 16.4776 0.0000 0.0000 0.0000 -23.8568 -2.0132 -16.4895 2.4182 9.6877 27.9712 1.4009 -14.8873 -22.1574 0.1997 -2.8777 -7.9385 0.0000 0.0000 0.0000 13.7109 10.0805 -49.0428 -4.8597 -13.2240 40.2130 -0.5835 -1.9652 -15.2747 -0.7048 5.3660 -14.9554 -4.2465 -2.0267 -13.3314 -0.0363 -2.1305 -4.4431 2.0218 -1.0494 2.9406 -1.4910 -1.7836 -6.0684 1.9919 -2.5056 12.3382 0.7113 -1.1803 4.7395 0.0000 -0.0000 0.0000 -83.2049 -6.7032 28.8759 20.7288 -31.5104 -5.9076 -0.0000 0.0000 -2.9474 22.8332 -16.7717 -6.9272 -7.1250 0.0000 -0.0000 -3.3162 11.8951 2.5658 0.0000 -0.0000 0.0000 93.5760 -18.2748 -54.0237 -5.2258 8.9649 -0.4099 0.0000 0.0000 57.5703 -20.3994 -33.3417 11.5521 7.1250 -0.0000 -0.0000 15.3520 -64.4191 -7.3009
0.6694 16.3392 -2.2960 2.6556 1.8453 16.4097 0.0000 0.0000 0.0000 -23.5162 -1.1425 -15.3352 2.2741 9.4152 27.1028 1.3716 -15.4892 -22.1190 0.2791 -3.3979 -9.3886 0.0000 0.0000 0.0000 14.2546 9.5724 -48.8203 -4.0634 -12.2443 36.6018 -0.5239 -2.5260 -14.8251 -1.4825 7.6929 -21.7852 -3.7608 -2.0877 -13.4097 0.0402 -2.2696 -4.2878 1.8007 -1.1241 3.1420 -1.4788 -1.9012 -5.9335 1.9475 -2.6555 12.0083 0.6892 -1.2581 4.6176 0.0000 0.0000 0.0000 -82.7514 -7.6875 29.9037 21.5308 -32.4426 -6.3323 -0.0000 0.0000 -3.9330 23.5472 -17.4451 -7.4434 -7.1250 0.0000 -0.0000 -2.8947 11.0773 2.2876 0.0000 0.0000 0.0000 93.7559 -19.1641 -54.1949 -5.2858 9.0659 -0.4194 0.0000 0.0000 56.9522 -20.2927 -33.4887 11.5316 7.1250 -0.0000 -0.0000 15.6062 -64.5311 -7.4653
0.6614 16.3261 -2.0784 2.7807 2.2241 16.3328 0.0000 0.0000 0.0000 -23.5332 -0.4858 -14.0965 2.1419 9.1556 26.2832 1.3221 -16.0163 -21.9386 0.2856 -3.4369 -9.4974 0.0000 0.0000 0.0000 14.0921 9.4707 -48.4215 -3.3235 -11.2013 32.9616 -0.5401 -2.0348 -14.7701 -1.2969 7.2153 -20.3547 -3.8291 -2.1455 -13.4953 0.0727 -2.3294 -4.0638 1.8562 -1.1609 3.4310 -1.4018 -2.0080 -5.9254 1.8430 -2.7884 11.6579 0.6383 -1.3273 4.5087 -0.0000 -0.0000 0.0000 -82.3630 -8.7727 31.0811 22.4379 -33.4684 -6.8258 -0.0000 0.0000 -4.9786 24.0132 -17.8162 -7.7621 -7.1250 0.0000 -0.0000 -2.6187 10.6125 2.0939 -0.0000 -0.0000 0.0000 93.8999 -19.8233 -54.8490 -5.3409 9.1585 -0.4281 0.0000 0.0000 56.6482 -19.0554 -34.5821 11.0921 7.1250 -0.0000 -0.0000 18.0720 -65.2263 -8.9702
0.6465 16.3110 -1.8610 2.9930 2.4697 16.2432 0.0000 0.0000 0.0000 -23.6160 0.3416 -12.9038 2.0052 8.8769 25.4109 1.2745 -16.5250 -21.7767 0.3285 -3.6840 -10.1892 0.0000 0.0000 0.0000 13.5871 9.7920 -47.9593 -2.6737 -10.1471 29.4544 -0.5327 -1.7280 -14.5214 -0.9675 6.2626 -17.5483 -4.0693 -2.2112 -13.3062 0.0491 -2.3911 -4.0041 1.9611 -1.1922 3.4028 -1.1470 -2.0606 -5.8920 1.6217 -2.8523 11.1252 0.5861 -1.3675 4.8116 -0.0000 -0.0000 0.0000 -81.9273 -9.5287 32.1871 23.4078 -34.5318 -7.3682 -0.0000 0.0000 -6.3343 24.1577 -17.4320 -7.6529 -7.1250 0.0000 -0.0000 -2.4915 11.0038 1.9720 -0.0000 -0.0000 0.0000 94.0832 -20.5748 -55.3462 -5.3543 9.1810 -0.4302 0.0000 0.0000 56.2003 -18.1481 -35.2320 10.7078 7.1250 -0.0000 -0.0000 19.7854 -65.5764 -10.0097
0.6343 16.2868 -1.6427 3.1358 2.9674 16.1729 0.0000 0.0000 0.0000 -23.5503 1.1111 -11.6133 1.8425 8.5300 24.3357 1.1752 -17.0185 -21.2771 0.4043 -4.0822 -11.3080 0.0000 0.0000 0.0000 13.3125 9.7160 -47.6622 -2.1494 -9.1706 26.3304 -0.5269 -1.6342 -14.4010 -1.3044 7.2352 -20.4140 -4.0972 -2.3634 -13.2082 0.0503 -2.5924 -3.9735 1.9472 -1.2923 3.3961 -1.0903 -2.0620 -5.6552 1.6228 -2.8586 10.9271 0.5786 -1.3702 4.6888 0.0000 -0.0000 0.0000 -81.4598 -10.0824 32.9422 24.3369 -35.5185 -7.9014 -0.0000 0.0000 -7.3019 24.2124 -17.6608 -7.7685 -7.1250 0.0000 -0.0000 -2.4748 10.7499 1.9717 0.0000 -0.0000 0.0000 94.2585 -21.5463 -53.7086 -5.4349 9.3165 -0.4432 0.0000 0.0000 53.4484 -18.0868 -35.7728 10.8088 7.1250 -0.0000 -0.0000 20.4380 -66.0573 -10.5777
0.6238 16.2717 -1.4193 3.4792 3.4951 16.1385 0.0000 0.0000 0.0000 -23.6960 1.4920 -10.1032 1.6735 8.1501 23.1711 1.1352 -16.9017 -20.9676 0.5619 -4.8014 -13.3429 0.0000 0.0000 0.0000 13.0327 9.2891 -47.4409 -1.7363 -8.2937 23.6099 -0.5756 -0.7975 -14.6425 -1.8698 8.5894 -24.5192 -4.3831 -2.5513 -13.2843 0.0501 -2.7972 -3.9014 2.0690 -1.3976 3.5390 -1.1655 -2.0774 -5.5668 1.7053 -2.8808 10.8726 0.6197 -1.3806 4.6544 0.0000 0.0000 0.0000 -81.1591 -10.7238 33.3494 25.1376 -36.3443 -8.3713 -0.0000 0.0000 -7.4059 24.4656 -18.0785 -8.0368 -7.1250 0.0000 -0.0000 -2.3453 10.2632 1.8915 0.0000 0.0000 0.0000 94.3951 -22.3371 -53.7695 -5.4915 9.4114 -0.4524 0.0000 0.0000 52.3457 -17.9430 -35.7592 10.7156 7.1250 -0.0000 -0.0000 20.5896 -66.0033 -10.6336
0.6137 16.2758 -1.1927 3.6758 3.9303 16.1265 0.0000 0.0000 0.0000 -23.6998 1.6823 -8.5090 1.4982 7.7317 21.9019 1.0264 -17.1380 -20.3086 0.4843 -4.4625 -12.3815 0.0000 0.0000 0.0000 13.0436 8.7593 -47.4317 -1.4395 -7.5852 21.4612 -0.5800 0.5765 -14.2021 -1.0245 6.4389 -18.0633 -4.5412 -2.6970 -13.3762 0.0898 -2.9639 -3.8531 2.1663 -1.4832 3.6606 -1.1082 -2.1332 -5.7148 1.6255 -2.9535 10.9858 0.5763 -1.4168 4.7247 -0.0000 -0.0000 0.0000 -80.9563 -11.5181 33.2408 25.7494 -36.9602 -8.7366 -0.0000 0.0000 -6.3431 24.4168 -18.1402 -8.0450 -7.1250 0.0000 -0.0000 -2.3826 10.2042 1.9245 -0.0000 -0.0000 0.0000 94.4315 -22.9511 -55.1681 -5.4690 9.3737 -0.4487 0.0000 0.0000 52.9025 -17.6882 -35.6007 10.5172 7.1250 -0.0000 -0.0000 20.7102 -65.7852 -10.5946
0.6060 16.2719 -0.9704 3.6258 4.5692 16.1894 0.0000 0.0000 0.0000 -23.3824 1.8738 -7.0282 1.3200 7.2766 20.5373 0.9019 -17.4159 -19.5476 0.4437 -4.2738 -11.8483 0.0000 0.0000 0.0000 13.4357 7.9791 -47.8218 -1.2397 -7.0603 19.8942 -0.5520 1.8955 -13.5115 -0.5972 4.9471 -13.7576 -4.3495 -2.8805 -13.5180 0.1987 -3.2271 -3.7588 2.1188 -1.6172 3.8525 -0.9659 -2.1479 -6.0533 1.4644 -2.9690 11.0991 0.4913 -1.4245 4.8298 0.0000 -0.0000 0.0000 -80.6776 -12.1824 33.5230 26.5923 -37.7876 -9.2482 -0.0000 0.0000 -6.8693 24.3728 -18.4013 -8.1389 -7.1250 0.0000 -0.0000 -2.4347 9.9305 1.9802 0.0000 -0.0000 0.0000 94.4476 -23.5025 -54.3485 -5.4949 9.4171 -0.4529 0.0000 0.0000 51.4232 -17.6733 -35.5425 10.4934 7.1250 -0.0000 -0.0000 20.6639 -65.7277 -10.5427
